<svg id="Group_3" data-name="Group 3" xmlns="http://www.w3.org/2000/svg" width="35.381" height="35.381" viewBox="0 0 35.381 35.381">
  <g id="_x30_8" transform="translate(0 0)">
    <path id="Path_3" data-name="Path 3" d="M19.058,6.792a9.951,9.951,0,0,1-2.847-.6l-1.8-.668-.622-.267v.026C11.284,6.294,7.521,7.807,7.377,7.88a6.778,6.778,0,0,0-3.488,4.3L2,31.892a.656.656,0,0,0,.189.526,5.163,5.163,0,0,0,3.627,1.5h.768a.655.655,0,0,0,.649-.57L9.419,16.787a24.875,24.875,0,0,1,.443,4.678V34.626a.656.656,0,0,0,.475.631,33.908,33.908,0,0,0,8.721,1.265V6.792Zm-3.824,21.1-1.264,3.793a.632.632,0,1,1-1.2-.4l1.264-3.793a.632.632,0,1,1,1.2.4Z" transform="translate(-2 -1.141)" fill="#7367f0"/>
    <path id="Path_4" data-name="Path 4" d="M31.648,12.059a6.764,6.764,0,0,0-3.467-4.179c-.145-.072-3.908-1.585-6.416-2.593V5.261l-.593.254-1.826.68a9.915,9.915,0,0,1-2.846.6V36.521a33.927,33.927,0,0,0,8.721-1.265.657.657,0,0,0,.475-.631V21.465a24.886,24.886,0,0,1,.443-4.678l2.183,16.565a.656.656,0,0,0,.65.57h.768a5.1,5.1,0,0,0,3.627-1.5.658.658,0,0,0,.189-.526ZM22.386,32.085a.631.631,0,0,1-.8-.4l-1.264-3.793a.632.632,0,0,1,1.2-.4l1.264,3.793A.633.633,0,0,1,22.386,32.085Z" transform="translate(1.822 -1.141)" fill="#7367f0"/>
    <path id="Path_5" data-name="Path 5" d="M12.424,5.213l1.768.656a8.769,8.769,0,0,0,6.076,0l1.8-.668,1.062-.456V2.656a.655.655,0,0,0-.883-.615l-1.863.693a9.092,9.092,0,0,1-6.3,0l-1.863-.693a.656.656,0,0,0-.884.615V4.745Z" transform="translate(0.46 -2)" fill="#7367f0"/>
  </g>
</svg>
