<svg xmlns="http://www.w3.org/2000/svg" width="35" height="35" viewBox="0 0 35 35">
  <g id="Group_1" data-name="Group 1" transform="translate(-32 -32)">
    <g id="Solid" transform="translate(32 32)">
      <path id="Path_1" data-name="Path 1" d="M37.131,129.647l2.742-1.828-.41-1.777-2.254,1.353-.629-1.049,2.595-1.557L38.138,120.3,35.7,112.368l1.169-.36,1.251,4.064V100.944l-2.42,1.21a.616.616,0,0,0-.274.274l-3.359,6.718a.615.615,0,0,0-.065.274v9.822a.615.615,0,0,0,.065.273Z" transform="translate(-32 -94.917)" fill="#7367f0"/>
      <path id="Path_2" data-name="Path 2" d="M266.857,45.431l1.991,1.593,2.02-4.545-.047-.118-.66-1.65L268.6,42.947Z" transform="translate(-248.424 -40.045)" fill="#7367f0"/>
      <path id="Path_3" data-name="Path 3" d="M196.693,45.431l-1.739-2.484-1.565-2.236-.66,1.65-.047.118,2.02,4.545Z" transform="translate(-180.071 -40.045)" fill="#7367f0"/>
      <path id="Path_4" data-name="Path 4" d="M220.295,33.835,221.579,32h-6.214l1.285,1.835Z" transform="translate(-200.945 -32)" fill="#7367f0"/>
      <path id="Path_5" data-name="Path 5" d="M135.515,105.915l1.66-5.1V77.78l-2.065,1.692a.6.6,0,0,1-.527.119.616.616,0,0,1-.414-.354l-2.213-5.1L128,75.657V95.83l1.518,6.738a7.923,7.923,0,0,0,6,3.347Zm-.787-25.052h1.223v1.253h-1.223Zm0,6.266h1.223v1.253h-1.223Zm0,6.266h1.223v1.253h-1.223Zm0,6.266h1.223v1.253h-1.223Z" transform="translate(-120.426 -70.915)" fill="#7367f0"/>
      <path id="Path_6" data-name="Path 6" d="M266.592,79.591a.6.6,0,0,1-.527-.12L264,77.78v23.032l1.66,5.1a8.063,8.063,0,0,0,7.515-8.134V75.657l-3.957-1.52-2.213,5.1A.616.616,0,0,1,266.592,79.591Zm4.749,3.777a.619.619,0,0,1,.612.627v4.386a.628.628,0,0,1-.338.56L269.167,90.2a.6.6,0,0,1-.547,0l-2.447-1.253a.628.628,0,0,1-.338-.56V84a.619.619,0,0,1,.612-.627Z" transform="translate(-245.695 -70.915)" fill="#7367f0"/>
      <path id="Path_7" data-name="Path 7" d="M406.064,128.121l-.147-1.32-2.1.525-.3-1.187,2.259-.565-2.64-23.758a.613.613,0,0,0-.367-.495L400,100.132v14.914l2.912,13.975Z" transform="translate(-371.064 -94.167)" fill="#7367f0"/>
      <path id="Path_8" data-name="Path 8" d="M243.365,72l.966,1.38L245.3,72Z" transform="translate(-226.804 -68.941)" fill="#7367f0"/>
      <path id="Path_9" data-name="Path 9" d="M307.67,211.292V208H304v3.292l1.835.918Z" transform="translate(-282.658 -194.204)" fill="#7367f0"/>
    </g>
  </g>
</svg>
