<svg id="Group_5" data-name="Group 5" xmlns="http://www.w3.org/2000/svg" width="61.915" height="35.381" viewBox="0 0 61.915 35.381">
  <g id="Group_4" data-name="Group 4" transform="translate(0 0)">
    <path id="Path_6" data-name="Path 6" d="M64.067,282.615l-.319-.469-.264.5c-1.724,3.275-7.455,5.232-12,5.232-5.787,0-34.36-.87-38.08-1.082-.735-.044-1.5-.064-2.417-.064-.567,0-1.093.007-1.6.014-.442.006-.859.011-1.251.011a9.243,9.243,0,0,1-2.963-.566,4.193,4.193,0,0,0-1.163-.277.778.778,0,0,0-.578.22,1.242,1.242,0,0,0-.266.932c.057,3.851,2.1,4.149,4.97,4.149.395,0,.815-.006,1.26-.011.507-.007,1.031-.014,1.593-.014.9,0,1.656.02,2.378.063,3.724.212,32.326,1.083,38.12,1.083a19.664,19.664,0,0,0,8.695-2.088c2.882-1.5,4.468-3.53,4.468-5.7A3.37,3.37,0,0,0,64.067,282.615Z" transform="translate(-2.732 -256.957)" fill="#7367f0"/>
    <path id="Path_7" data-name="Path 7" d="M5.017,125.293c.392,0,.809-.006,1.251-.011.5-.007,1.023-.014,1.581-.014.895,0,1.644.02,2.359.063,3.695.212,32.075,1.082,37.824,1.082a19.391,19.391,0,0,0,8.63-2.089c2.859-1.505,4.434-3.53,4.434-5.7,0-3.15-3.594-4.167-7.4-5.244a30.483,30.483,0,0,1-6.032-2.166c-.816-.439-2.061-1.074-3.578-1.834,0-.044.007-.088.007-.132a2.349,2.349,0,0,0-3.877-1.786l-1.686-.827a2.345,2.345,0,0,0-3.715-1.812l-1.542-.749a2.35,2.35,0,0,0-4-1.936c-5.013-2.421-9.123-4.387-9.491-4.563a1.287,1.287,0,0,0-.726-.234,1.31,1.31,0,0,0-1.041.527l-2.769,3.713a1.955,1.955,0,0,0-.433,1.506c.165.984,1.181,1.682,2,2.242a3.961,3.961,0,0,1,.885.716l0,0a6.42,6.42,0,0,1-4.041,1.1,11.164,11.164,0,0,1-3.772-.684c-1.5-.548-2.127-2.051-2.626-3.259-.418-1.01-.779-1.883-1.581-1.883-.608,0-1.312.546-2.357,1.829C-.237,107.66-.071,114.558.051,119.594c.013.539.025,1.058.033,1.55C.14,125,2.164,125.293,5.017,125.293ZM34.784,111.3a1.116,1.116,0,0,1,1.019-.282c.49.147,1.649.459,2.358.635.606.151.059.627.059.627l-9.2,8.424a1.515,1.515,0,0,1-.95.347c-.917,0-2.694-.007-3.419-.007-.6,0-.1-.508-.1-.508S34.783,111.3,34.784,111.3Zm-7.007-1.988a1.7,1.7,0,0,1,1.563-.431c.432.137,1.446.388,2.093.569.553.155-.033.725-.034.726L20.007,120.5a1.273,1.273,0,0,1-1.159.482c-1,0-2.914.046-3.7.046-.442,0-.049-.476-.049-.475Z" transform="translate(-0.002 -97.338)" fill="#7367f0"/>
  </g>
</svg>
