<svg id="Group_2" data-name="Group 2" xmlns="http://www.w3.org/2000/svg" width="40.671" height="35.381" viewBox="0 0 40.671 35.381">
  <g id="Group_1" data-name="Group 1" transform="translate(0 0)">
    <path id="Path_1" data-name="Path 1" d="M123.765,26.681a4.021,4.021,0,0,0,3.83-2.776,16.162,16.162,0,0,1-7.66,0A4.02,4.02,0,0,0,123.765,26.681Z" transform="translate(-103.429 -23.26)" fill="#7367f0"/>
    <path id="Path_2" data-name="Path 2" d="M40.62,24.672a.932.932,0,0,0-.485-.533l-7.754-3.58a37.5,37.5,0,0,0-5.027-1.323.924.924,0,0,0-.178-.017.911.911,0,0,0-.89.715,6.1,6.1,0,0,1-11.9,0,.912.912,0,0,0-.89-.715.924.924,0,0,0-.178.017,37.642,37.642,0,0,0-5.029,1.323L.535,24.138a.912.912,0,0,0-.483.533.9.9,0,0,0,.049.718l3.366,6.643a.914.914,0,0,0,1.081.466L8.286,31.39V53.681a.921.921,0,0,0,.921.919H31.463a.92.92,0,0,0,.918-.919V31.39L36.123,32.5a.914.914,0,0,0,1.081-.466l3.367-6.643A.922.922,0,0,0,40.62,24.672Z" transform="translate(0 -19.219)" fill="#7367f0"/>
  </g>
</svg>
